<?xml version="1.0" encoding="utf-8"?>
<svg viewBox="5.448 19.174 483.522 66.986" width="483.522" height="66.986" xmlns="http://www.w3.org/2000/svg" xmlns:bx="https://boxy-svg.com">
  <defs>
    <style bx:fonts="Actor">@import url(https://fonts.googleapis.com/css2?family=Actor%3Aital%2Cwght%400%2C400&amp;display=swap);</style>
  </defs>
  <polygon fill="#B99BF8" fill-opacity=".7" points="362.54 81.956 488.97 81.956 488.97 22.955 362.54 22.955" style=""/>
  <polygon fill="#231F20" fill-opacity=".7" points="450.14 30.945 458.568 30.945 458.568 64.66 479.641 64.66 479.641 73.089 450.14 73.089" style=""/>
  <polygon fill="#231F20" fill-opacity=".7" points="371.517 31.376 379.945 31.376 379.945 48.232 396.803 48.232 396.803 31.376 405.231 31.376 405.231 73.519 396.803 73.519 396.803 56.662 379.945 56.662 379.945 73.519 371.517 73.519" style=""/>
  <path fill="#231F20" fill-opacity=".7" d="M 421.094 39.703 L 421.094 64.989 L 426.565 64.989 C 434.394 64.989 437.952 60.716 437.952 52.472 L 437.952 52.346 C 437.952 44.103 434.394 39.703 426.565 39.703 L 421.094 39.703 Z M 412.665 31.274 L 426.565 31.274 C 438.289 31.274 446.38 40.487 446.38 52.346 C 446.38 64.323 438.289 73.417 426.565 73.417 L 412.665 73.417 L 412.665 31.274 Z" style=""/>
  <rect x="5.448" y="23.09" width="357.167" height="58.875" style="stroke: rgba(0, 0, 0, 0); paint-order: stroke; fill: rgb(86, 77, 97);"/>
  <text style="fill: rgb(185, 155, 248); font-family: Actor; font-size: 55.6px; font-weight: 700; stroke-dasharray: 2px; stroke-miterlimit: 1; text-transform: uppercase; white-space: pre;" x="12.006" y="71.487">NAND2TETRIS</text>
</svg>