<?xml version="1.0" encoding="utf-8"?>
<svg viewBox="260.986 367.963 15 15" width="15" height="15" xmlns="http://www.w3.org/2000/svg">
  <g fill="none" fill-rule="evenodd" transform="matrix(1, 0, 0, 1, 259.98563, 366.96311)">
    <polygon fill="#B99BF8" fill-opacity=".7" points="1 16 16 16 16 9 1 9"/>
    <polygon fill="#9AA7B0" fill-opacity=".8" points="7 1 3 5 7 5"/>
    <polygon fill="#9AA7B0" fill-opacity=".8" points="8 1 8 6 3 6 3 8 13 8 13 1"/>
    <polygon fill="#231F20" fill-opacity=".7" points="11.393 9.948 12.393 9.948 12.393 13.948 14.893 13.948 14.893 14.948 11.393 14.948"/>
    <polygon fill="#231F20" fill-opacity=".7" points="2.065 9.999 3.065 9.999 3.065 11.999 5.065 11.999 5.065 9.999 6.065 9.999 6.065 14.999 5.065 14.999 5.065 12.999 3.065 12.999 3.065 14.999 2.065 14.999"/>
    <path fill="#231F20" fill-opacity=".7" d="M 7.947 10.987 L 7.947 13.987 L 8.596 13.987 C 9.525 13.987 9.947 13.48 9.947 12.502 L 9.947 12.487 C 9.947 11.509 9.525 10.987 8.596 10.987 L 7.947 10.987 Z M 6.947 9.987 L 8.596 9.987 C 9.987 9.987 10.947 11.08 10.947 12.487 C 10.947 13.908 9.987 14.987 8.596 14.987 L 6.947 14.987 L 6.947 9.987 Z"/>
  </g>
</svg>